<svg xmlns="http://www.w3.org/2000/svg" xmlns:xlink="http://www.w3.org/1999/xlink" version="1.1" viewBox="0 0 2350 2100" style="background: #ffffff"><defs><style>@import url(https://fonts.googleapis.com/css?family=Open+Sans:400,700);</style></defs><defs joint-selector="defs"></defs><g joint-selector="layers"  transform="matrix(1,0,0,1,0,0)"><g ></g><g ><!--z-index:0--><!--z-index:1--><!--z-index:2--><!--z-index:3--><!--z-index:4--><!--z-index:5--><!--z-index:6--><!--z-index:7--><!--z-index:8--><!--z-index:9--><!--z-index:10--><!--z-index:11--><!--z-index:12--><!--z-index:13--><!--z-index:14--><!--z-index:15--><g   id="j_324"  transform="translate(20,2063.6)"><g id="v-4761"><text  id="v-4762" font-size="22px" xml:space="preserve" y="0.8em" font-weight="normal" text-anchor="start" fill="#aaaaaa" pointer-events="none" display="block" font-family="Open Sans"><tspan dy="0" >Monday 16 September 2024 at 10:47 India Standard Time</tspan></text></g></g><!--z-index:16--><g   id="j_323"  transform="translate(20,2020.3999999999999)"><g id="v-4759"><text  id="v-4760" font-size="36px" xml:space="preserve" y="0.8em" font-weight="normal" text-anchor="start" fill="#000000" pointer-events="none" display="block" font-family="Open Sans"><tspan dy="0" >[System Context] xTrace</tspan></text></g></g><!--z-index:17--><g   id="j_325"  transform="translate(224,199)" style=""><g  id="v-4769" style="opacity: 1;"><rect  x="0" y="160" width="400" height="240" rx="70" id="v-4771" stroke="#073b6f" stroke-width="2" pointer-events="visiblePainted" fill="#08427b" style="fill: rgb(8, 66, 123); stroke: rgb(7, 59, 111);"></rect><circle  cx="200" cy="88.88888888888889" r="88.88888888888889" id="v-4770" stroke="#073b6f" stroke-width="2" pointer-events="visiblePainted" fill="#08427b" style="fill: rgb(8, 66, 123); stroke: rgb(7, 59, 111);"></circle><line  x1="80" y1="266.6666666666667" x2="80" y2="400" id="v-4777" stroke="#073b6f" stroke-width="2" style="stroke: rgb(7, 59, 111);"></line><line  x1="320" y1="266.6666666666667" x2="320" y2="400" id="v-4778" stroke="#073b6f" stroke-width="2" style="stroke: rgb(7, 59, 111);"></line><text  id="v-4772" font-size="32" xml:space="preserve" y="0.8em" font-weight="bold" text-anchor="middle" pointer-events="visible" font-family="Open Sans" fill="#ffffff" transform="matrix(1,0,0,1,200,209.7)" style="fill: rgb(255, 255, 255);"><tspan dy="0" >Software Developer</tspan></text><text  id="v-4773" font-size="15" xml:space="preserve" y="0.8em" text-anchor="middle" font-family="Open Sans" fill="#ffffff" transform="matrix(1,0,0,1,200,248.1)" style="fill: rgb(255, 255, 255);"><tspan dy="0" >[Person]</tspan></text><text  id="v-4774" font-size="22" xml:space="preserve" y="0.8em" text-anchor="middle" font-family="Open Sans" fill="#ffffff" transform="matrix(1,0,0,1,200,276.1)" style="fill: rgb(255, 255, 255);"><tspan dy="0" >Member in a software dev team,</tspan><tspan dy="1.2em" x="0" >seeking insights into their</tspan><tspan dy="1.2em" x="0" >application code using xTrace</tspan></text><g  id="v-4775" font-weight="normal" text-anchor="middle" color="#ffffff" transform="matrix(1,0,0,1,197.5,368)" display="none" style="fill: rgb(255, 255, 255);"><g ></g><g ></g><g ></g><g ></g></g><image  id="v-4776"></image></g></g><!--z-index:18--><g   id="j_326"  transform="translate(224,899)" style=""><g  id="v-4782" style="opacity: 1;"><rect  x="0" y="160" width="400" height="240" rx="70" id="v-4784" stroke="#073b6f" stroke-width="2" pointer-events="visiblePainted" fill="#08427b" style="fill: rgb(8, 66, 123); stroke: rgb(7, 59, 111);"></rect><circle  cx="200" cy="88.88888888888889" r="88.88888888888889" id="v-4783" stroke="#073b6f" stroke-width="2" pointer-events="visiblePainted" fill="#08427b" style="fill: rgb(8, 66, 123); stroke: rgb(7, 59, 111);"></circle><line  x1="80" y1="266.6666666666667" x2="80" y2="400" id="v-4790" stroke="#073b6f" stroke-width="2" style="stroke: rgb(7, 59, 111);"></line><line  x1="320" y1="266.6666666666667" x2="320" y2="400" id="v-4791" stroke="#073b6f" stroke-width="2" style="stroke: rgb(7, 59, 111);"></line><text  id="v-4785" font-size="32" xml:space="preserve" y="0.8em" font-weight="bold" text-anchor="middle" pointer-events="visible" font-family="Open Sans" fill="#ffffff" transform="matrix(1,0,0,1,200,209.7)" style="fill: rgb(255, 255, 255);"><tspan dy="0" >Software Admin</tspan></text><text  id="v-4786" font-size="15" xml:space="preserve" y="0.8em" text-anchor="middle" font-family="Open Sans" fill="#ffffff" transform="matrix(1,0,0,1,200,248.1)" style="fill: rgb(255, 255, 255);"><tspan dy="0" >[Person]</tspan></text><text  id="v-4787" font-size="22" xml:space="preserve" y="0.8em" text-anchor="middle" font-family="Open Sans" fill="#ffffff" transform="matrix(1,0,0,1,200,276.1)" style="fill: rgb(255, 255, 255);"><tspan dy="0" >Owner of software app team, will</tspan><tspan dy="1.2em" x="0" >onboard their code repo to xTrace</tspan><tspan dy="1.2em" x="0" >to start tracing</tspan></text><g  id="v-4788" font-weight="normal" text-anchor="middle" color="#ffffff" transform="matrix(1,0,0,1,197.5,368)" display="none" style="fill: rgb(255, 255, 255);"><g ></g><g ></g><g ></g><g ></g></g><image  id="v-4789"></image></g></g><!--z-index:19--><g   id="j_327"  transform="translate(949,949)" style=""><g  id="v-4795" style="opacity: 1;"><rect  id="v-4796" rx="1" ry="1" stroke="#0f5eaa" stroke-width="2" pointer-events="visiblePainted" fill="#1168bd" width="450" height="300" style="fill: rgb(17, 104, 189); stroke: rgb(15, 94, 170);"></rect><text  id="v-4797" font-size="34" xml:space="preserve" y="0.8em" font-weight="bold" text-anchor="middle" pointer-events="visible" font-family="Open Sans" fill="#ffffff" transform="matrix(1,0,0,1,225,88.1)" style="fill: rgb(255, 255, 255);"><tspan dy="0" >xTrace</tspan></text><text  id="v-4798" font-size="17" xml:space="preserve" y="0.8em" text-anchor="middle" font-family="Open Sans" fill="#ffffff" transform="matrix(1,0,0,1,225,128.9)" style="fill: rgb(255, 255, 255);"><tspan dy="0" >[Software System]</tspan></text><text  id="v-4799" font-size="24" xml:space="preserve" y="0.8em" text-anchor="middle" font-family="Open Sans" fill="#ffffff" transform="matrix(1,0,0,1,225,159.3)" style="fill: rgb(255, 255, 255);"><tspan dy="0" >Views code replays, debug</tspan><tspan dy="1.2em" x="0" >recordings</tspan></text><g  id="v-4800" color="#ffffff" transform="matrix(1,0,0,1,210,268)" display="none" style="fill: rgb(255, 255, 255);"><g  transform="translate(5 0)"><svg xmlns="http://www.w3.org/2000/svg" width="20" height="20" fill="currentColor" viewBox="0 0 16 16"><path fill-rule="evenodd" d="M6.5 12a5.5 5.5 0 1 0 0-11 5.5 5.5 0 0 0 0 11zM13 6.5a6.5 6.5 0 1 1-13 0 6.5 6.5 0 0 1 13 0z"></path><path d="M10.344 11.742c.03.04.062.078.098.115l3.85 3.85a1 1 0 0 0 1.415-1.414l-3.85-3.85a1.007 1.007 0 0 0-.115-.1 6.538 6.538 0 0 1-1.398 1.4z"></path><path fill-rule="evenodd" d="M6.5 3a.5.5 0 0 1 .5.5V6h2.5a.5.5 0 0 1 0 1H7v2.5a.5.5 0 0 1-1 0V7H3.5a.5.5 0 0 1 0-1H6V3.5a.5.5 0 0 1 .5-.5z"></path></svg></g><g ></g><g ></g><g ></g></g><image  id="v-4801"></image></g></g><!--z-index:20--><g   id="j_328"  transform="translate(199,1599)" style=""><g  id="v-4808" style="opacity: 1;"><rect  id="v-4809" rx="20" ry="20" stroke="#073b6f" stroke-width="2" pointer-events="visiblePainted" fill="#08427b" width="450" height="300" style="fill: rgb(8, 66, 123); stroke: rgb(7, 59, 111);"></rect><text  id="v-4810" font-size="34" xml:space="preserve" y="0.8em" font-weight="bold" text-anchor="middle" pointer-events="visible" font-family="Open Sans" fill="#ffffff" transform="matrix(1,0,0,1,225,67.7)" style="fill: rgb(255, 255, 255);"><tspan dy="0" >Customer application</tspan><tspan dy="1.2em" x="0" >with xTrace</tspan></text><text  id="v-4811" font-size="17" xml:space="preserve" y="0.8em" text-anchor="middle" font-family="Open Sans" fill="#ffffff" transform="matrix(1,0,0,1,225,149.3)" style="fill: rgb(255, 255, 255);"><tspan dy="0" >[Software System]</tspan></text><text  id="v-4812" font-size="24" xml:space="preserve" y="0.8em" text-anchor="middle" font-family="Open Sans" fill="#ffffff" transform="matrix(1,0,0,1,225,179.7)" style="fill: rgb(255, 255, 255);"><tspan dy="0" >Customer's application with xTrace</tspan><tspan dy="1.2em" x="0" >onboarded</tspan></text><g  id="v-4813" color="#ffffff" transform="matrix(1,0,0,1,222.5,268)" display="none" style="fill: rgb(255, 255, 255);"><g ></g><g ></g><g ></g><g ></g></g><image  id="v-4814"></image></g></g><!--z-index:21--><g   id="j_329"  transform="translate(1699,349)" style=""><g  id="v-4821" style="opacity: 1;"><rect  id="v-4822" rx="10" ry="10" stroke="#073b6f" stroke-width="2" pointer-events="visiblePainted" fill="#08427b" x="10" y="0" width="150" height="75" style="fill: rgb(8, 66, 123); stroke: rgb(7, 59, 111);"></rect><rect  id="v-4823" rx="5" ry="5" stroke="#073b6f" stroke-width="2" pointer-events="visiblePainted" fill="#08427b" x="0" y="37.5" width="450" height="262.5" style="fill: rgb(8, 66, 123); stroke: rgb(7, 59, 111);"></rect><text  id="v-4824" font-size="34" xml:space="preserve" y="0.8em" font-weight="bold" text-anchor="middle" pointer-events="visible" font-family="Open Sans" fill="#ffffff" transform="matrix(1,0,0,1,225,86.5)" style="fill: rgb(255, 255, 255);"><tspan dy="0" >Customer application</tspan><tspan dy="1.2em" x="0" >code repo</tspan></text><text  id="v-4825" font-size="17" xml:space="preserve" y="0.8em" text-anchor="middle" font-family="Open Sans" fill="#ffffff" transform="matrix(1,0,0,1,225,168.1)" style="fill: rgb(255, 255, 255);"><tspan dy="0" >[Software System]</tspan></text><text  id="v-4826" font-size="24" xml:space="preserve" y="0.8em" text-anchor="middle" font-family="Open Sans" fill="#ffffff" transform="matrix(1,0,0,1,225,198.5)" style="fill: rgb(255, 255, 255);"><tspan dy="0" >Customer's application code</tspan><tspan dy="1.2em" x="0" >repository folder</tspan></text><g  id="v-4827" font-weight="normal" text-anchor="middle" color="#ffffff" transform="matrix(1,0,0,1,222.5,268)" display="none" style="fill: rgb(255, 255, 255);"><g ></g><g ></g><g ></g><g ></g></g><image  id="v-4828"></image></g></g><!--z-index:22--><g   id="j_330"  transform="translate(1699,949)" style=""><g  id="v-4832" style="opacity: 1;"><rect  id="v-4833" rx="1" ry="1" stroke="#8a8a8a" stroke-width="2" pointer-events="visiblePainted" fill="#999999" width="450" height="300" style="fill: rgb(153, 153, 153); stroke: rgb(138, 138, 138);"></rect><text  id="v-4834" font-size="34" xml:space="preserve" y="0.8em" font-weight="bold" text-anchor="middle" pointer-events="visible" font-family="Open Sans" fill="#ffffff" transform="matrix(1,0,0,1,225,88.1)" style="fill: rgb(255, 255, 255);"><tspan dy="0" >Payments</tspan></text><text  id="v-4835" font-size="17" xml:space="preserve" y="0.8em" text-anchor="middle" font-family="Open Sans" fill="#ffffff" transform="matrix(1,0,0,1,225,128.9)" style="fill: rgb(255, 255, 255);"><tspan dy="0" >[Software System]</tspan></text><text  id="v-4836" font-size="24" xml:space="preserve" y="0.8em" text-anchor="middle" font-family="Open Sans" fill="#ffffff" transform="matrix(1,0,0,1,225,159.3)" style="fill: rgb(255, 255, 255);"><tspan dy="0" >Manages direct debits, card</tspan><tspan dy="1.2em" x="0" >payments</tspan></text><g  id="v-4837" color="#ffffff" transform="matrix(1,0,0,1,222.5,268)" display="none" style="fill: rgb(255, 255, 255);"><g ></g><g ></g><g ></g><g ></g></g><image  id="v-4838"></image></g></g><!--z-index:23--><g   id="j_331"  transform="translate(1699,1549)" style=""><g  id="v-4845" style="opacity: 1;"><rect  id="v-4846" rx="1" ry="1" stroke="#8a8a8a" stroke-width="2" pointer-events="visiblePainted" fill="#999999" width="450" height="300" style="fill: rgb(153, 153, 153); stroke: rgb(138, 138, 138);"></rect><text  id="v-4847" font-size="34" xml:space="preserve" y="0.8em" font-weight="bold" text-anchor="middle" pointer-events="visible" font-family="Open Sans" fill="#ffffff" transform="matrix(1,0,0,1,225,88.1)" style="fill: rgb(255, 255, 255);"><tspan dy="0" >Oauth Identity Provider</tspan></text><text  id="v-4848" font-size="17" xml:space="preserve" y="0.8em" text-anchor="middle" font-family="Open Sans" fill="#ffffff" transform="matrix(1,0,0,1,225,128.9)" style="fill: rgb(255, 255, 255);"><tspan dy="0" >[Software System]</tspan></text><text  id="v-4849" font-size="24" xml:space="preserve" y="0.8em" text-anchor="middle" font-family="Open Sans" fill="#ffffff" transform="matrix(1,0,0,1,225,159.3)" style="fill: rgb(255, 255, 255);"><tspan dy="0" >Authenticates user using their</tspan><tspan dy="1.2em" x="0" >Google, Microsoft, Github accounts</tspan></text><g  id="v-4850" color="#ffffff" transform="matrix(1,0,0,1,222.5,268)" display="none" style="fill: rgb(255, 255, 255);"><g ></g><g ></g><g ></g><g ></g></g><image  id="v-4851"></image></g></g><!--z-index:24--><g   id="j_332" ><path  stroke="#707070" d="M 624 586 L 1013 949" id="v-4864" stroke-width="2" stroke-dasharray="30 30" fill="none" style="opacity: 1;"></path><path  fill="black" stroke="black" d="M 0 0 0 0" transform="matrix(0.7310621232427924,0.6823109056432707,-0.6823109056432707,0.7310621232427924,624,585.6699829101562)"></path><path  fill="#707070" stroke="#707070" d="M 20 0 L 0 10 L 20 20 z" id="v-4866" transform="matrix(-0.7310621232427924,-0.6823109056432706,0.6823109056432706,-0.7310621232427924,1006.4668822931826,956.310610171673)" style="opacity: 1;"></path><path  d="M 624 586 L 1013 949" id="v-4865" fill="none" style="cursor: auto; pointer-events: visiblepainted;"></path><g ><g id="v-4858"  label-idx="0" cursor="move" transform="matrix(1,0,0,1,818.5,767.5)" style="cursor: default; opacity: 1;"><rect joint-selector="rect" id="v-4861" fill="#ffffff" rx="3" ry="3" pointer-events="none" width="185.11572265625" height="90.15814590454102" transform="matrix(1,0,0,1,-92.6,-45)"></rect><text joint-selector="text" id="v-4860" font-size="24px" xml:space="preserve" y="0.8em" fill="#707070" text-anchor="middle" pointer-events="none" font-family="Open Sans" font-weight="normal" transform="matrix(1,0,0,1,0,-39.2)"><tspan dy="0" >Views code</tspan><tspan dy="1.2em" x="0" >replays, debug</tspan><tspan dy="1.2em" x="0" >recordings using</tspan></text></g><g id="v-4859"  label-idx="1" cursor="move" transform="matrix(1,0,0,1,808.5,822.7000122070312)" style="cursor: default; opacity: 1;"><rect joint-selector="rect" id="v-4863" fill="#ffffff" rx="3" ry="3"  width="0" height="0" transform="matrix(1,0,0,1,0,0)" display="none"></rect><text joint-selector="text" id="v-4862" fill="#000000" font-size="14" text-anchor="middle" pointer-events="none"></text></g></g><g  display="none" style="display: none;"></g><g  id="v-4868" display="none"><g  id="v-4856"><path  end="source" d="M 26 0 L 0 13 L 26 26 z"></path></g><g  id="v-4857"><path  end="target" d="M 26 0 L 0 13 L 26 26 z"></path></g></g><g  id="v-4867" display="none"><g  id="v-4855" transform="translate(653.2447106280937, 613.2900513059075) "><g  event="remove"><circle r="11"></circle><path transform="scale(.8) translate(-16, -16)" d="M24.778,21.419 19.276,15.917 24.777,10.415 21.949,7.585 16.447,13.087 10.945,7.585 8.117,10.415 13.618,15.917 8.116,21.419 10.946,24.248 16.447,18.746 21.948,24.248z"></path><title>Remove link.</title></g><g  event="link:options"><circle r="11" transform="translate(25)"></circle><path fill="white" transform="scale(.55) translate(29, -16)" d="M31.229,17.736c0.064-0.571,0.104-1.148,0.104-1.736s-0.04-1.166-0.104-1.737l-4.377-1.557c-0.218-0.716-0.504-1.401-0.851-2.05l1.993-4.192c-0.725-0.91-1.549-1.734-2.458-2.459l-4.193,1.994c-0.647-0.347-1.334-0.632-2.049-0.849l-1.558-4.378C17.165,0.708,16.588,0.667,16,0.667s-1.166,0.041-1.737,0.105L12.707,5.15c-0.716,0.217-1.401,0.502-2.05,0.849L6.464,4.005C5.554,4.73,4.73,5.554,4.005,6.464l1.994,4.192c-0.347,0.648-0.632,1.334-0.849,2.05l-4.378,1.557C0.708,14.834,0.667,15.412,0.667,16s0.041,1.165,0.105,1.736l4.378,1.558c0.217,0.715,0.502,1.401,0.849,2.049l-1.994,4.193c0.725,0.909,1.549,1.733,2.459,2.458l4.192-1.993c0.648,0.347,1.334,0.633,2.05,0.851l1.557,4.377c0.571,0.064,1.148,0.104,1.737,0.104c0.588,0,1.165-0.04,1.736-0.104l1.558-4.377c0.715-0.218,1.399-0.504,2.049-0.851l4.193,1.993c0.909-0.725,1.733-1.549,2.458-2.458l-1.993-4.193c0.347-0.647,0.633-1.334,0.851-2.049L31.229,17.736zM16,20.871c-2.69,0-4.872-2.182-4.872-4.871c0-2.69,2.182-4.872,4.872-4.872c2.689,0,4.871,2.182,4.871,4.872C20.871,18.689,18.689,20.871,16,20.871z"></path><title>Link options.</title></g></g></g></g><!--z-index:25--><g   id="j_333" ><path  stroke="#707070" d="M 624 1099 L 949 1099" id="v-4881" stroke-width="2" stroke-dasharray="30 30" fill="none" style="opacity: 1;"></path><path  fill="black" stroke="black" d="M 0 0 0 0" transform="matrix(1,0,0,1,624,1099)"></path><path  fill="#707070" stroke="#707070" d="M 20 0 L 0 10 L 20 20 z" id="v-4883" transform="matrix(-1,1.2246467991473532e-16,-1.2246467991473532e-16,-1,948.9999999999999,1109)" style="opacity: 1;"></path><path  d="M 624 1099 L 949 1099" id="v-4882" fill="none" style="cursor: auto; pointer-events: visiblepainted;"></path><g ><g id="v-4875"  label-idx="0" cursor="move" transform="matrix(1,0,0,1,786.5,1099)" style="cursor: default; opacity: 1;"><rect joint-selector="rect" id="v-4878" fill="#ffffff" rx="3" ry="3" pointer-events="none" width="191.86605834960938" height="90.15814590454102" transform="matrix(1,0,0,1,-95.9,-45)"></rect><text joint-selector="text" id="v-4877" font-size="24px" xml:space="preserve" y="0.8em" fill="#707070" text-anchor="middle" pointer-events="none" font-family="Open Sans" font-weight="normal" transform="matrix(1,0,0,1,0,-39.2)"><tspan dy="0" >Onboards xTrace</tspan><tspan dy="1.2em" x="0" >to application</tspan><tspan dy="1.2em" x="0" >code</tspan></text></g><g id="v-4876"  label-idx="1" cursor="move" transform="matrix(1,0,0,1,776.5,1154.199951171875)" style="cursor: default; opacity: 1;"><rect joint-selector="rect" id="v-4880" fill="#ffffff" rx="3" ry="3"  width="0" height="0" transform="matrix(1,0,0,1,0,0)" display="none"></rect><text joint-selector="text" id="v-4879" fill="#000000" font-size="14" text-anchor="middle" pointer-events="none"></text></g></g><g  display="none" style="display: none;"></g><g  id="v-4885" display="none"><g  id="v-4873"><path  end="source" d="M 26 0 L 0 13 L 26 26 z"></path></g><g  id="v-4874"><path  end="target" d="M 26 0 L 0 13 L 26 26 z"></path></g></g><g  id="v-4884" display="none"><g  id="v-4872" transform="translate(664, 1099) "><g  event="remove"><circle r="11"></circle><path transform="scale(.8) translate(-16, -16)" d="M24.778,21.419 19.276,15.917 24.777,10.415 21.949,7.585 16.447,13.087 10.945,7.585 8.117,10.415 13.618,15.917 8.116,21.419 10.946,24.248 16.447,18.746 21.948,24.248z"></path><title>Remove link.</title></g><g  event="link:options"><circle r="11" transform="translate(25)"></circle><path fill="white" transform="scale(.55) translate(29, -16)" d="M31.229,17.736c0.064-0.571,0.104-1.148,0.104-1.736s-0.04-1.166-0.104-1.737l-4.377-1.557c-0.218-0.716-0.504-1.401-0.851-2.05l1.993-4.192c-0.725-0.91-1.549-1.734-2.458-2.459l-4.193,1.994c-0.647-0.347-1.334-0.632-2.049-0.849l-1.558-4.378C17.165,0.708,16.588,0.667,16,0.667s-1.166,0.041-1.737,0.105L12.707,5.15c-0.716,0.217-1.401,0.502-2.05,0.849L6.464,4.005C5.554,4.73,4.73,5.554,4.005,6.464l1.994,4.192c-0.347,0.648-0.632,1.334-0.849,2.05l-4.378,1.557C0.708,14.834,0.667,15.412,0.667,16s0.041,1.165,0.105,1.736l4.378,1.558c0.217,0.715,0.502,1.401,0.849,2.049l-1.994,4.193c0.725,0.909,1.549,1.733,2.459,2.458l4.192-1.993c0.648,0.347,1.334,0.633,2.05,0.851l1.557,4.377c0.571,0.064,1.148,0.104,1.737,0.104c0.588,0,1.165-0.04,1.736-0.104l1.558-4.377c0.715-0.218,1.399-0.504,2.049-0.851l4.193,1.993c0.909-0.725,1.733-1.549,2.458-2.458l-1.993-4.193c0.347-0.647,0.633-1.334,0.851-2.049L31.229,17.736zM16,20.871c-2.69,0-4.872-2.182-4.872-4.871c0-2.69,2.182-4.872,4.872-4.872c2.689,0,4.871,2.182,4.871,4.872C20.871,18.689,18.689,20.871,16,20.871z"></path><title>Link options.</title></g></g></g></g><!--z-index:26--><g   id="j_334" ><path  stroke="#707070" d="M 1399 1099 L 1699 1099" id="v-4901" stroke-width="2" stroke-dasharray="30 30" fill="none" style="opacity: 1;"></path><path  fill="black" stroke="black" d="M 0 0 0 0" transform="matrix(1,0,0,1,1399,1099)"></path><path  fill="#707070" stroke="#707070" d="M 20 0 L 0 10 L 20 20 z" id="v-4903" transform="matrix(-1,1.2246467991473532e-16,-1.2246467991473532e-16,-1,1699,1109)" style="opacity: 1;"></path><path  d="M 1399 1099 L 1699 1099" id="v-4902" fill="none" style="cursor: auto; pointer-events: visiblepainted;"></path><g ><g id="v-4892"  label-idx="0" cursor="move" transform="matrix(1,0,0,1,1549,1099)" style="cursor: default; opacity: 1;"><rect joint-selector="rect" id="v-4896" fill="#ffffff" rx="3" ry="3" pointer-events="none" width="142.324462890625" height="61.35813903808594" transform="matrix(1,0,0,1,-71.2,-30.6)"></rect><text joint-selector="text" id="v-4895" font-size="24px" xml:space="preserve" y="0.8em" fill="#707070" text-anchor="middle" pointer-events="none" font-family="Open Sans" font-weight="normal" transform="matrix(1,0,0,1,0,-24.8)"><tspan dy="0" >Redirects for</tspan><tspan dy="1.2em" x="0" >payment to</tspan></text></g><g id="v-4893"  label-idx="1" cursor="move" transform="matrix(1,0,0,1,1549,1139.800048828125)" style="cursor: default; opacity: 1;"><rect joint-selector="rect" id="v-4898" fill="#ffffff" rx="3" ry="3" pointer-events="none" width="61.90742492675781" height="23.792485237121582" transform="matrix(1,0,0,1,-31,-11.9)"></rect><text joint-selector="text" id="v-4897" font-size="17px" xml:space="preserve" y="0.8em" fill="#707070" text-anchor="middle" pointer-events="none" font-family="Open Sans" font-weight="normal" transform="matrix(1,0,0,1,0,-6.7)"><tspan dy="0" >[HTTPS]</tspan></text></g><g id="v-4894"  label-idx="2" cursor="move" transform="matrix(1,0,0,1,1539,1148.199951171875)" style="cursor: default; opacity: 1;"><rect joint-selector="rect" id="v-4900" fill="#ffffff" rx="3" ry="3"  width="0" height="0" transform="matrix(1,0,0,1,0,0)" display="none"></rect><text joint-selector="text" id="v-4899" fill="#000000" font-size="14" text-anchor="middle" pointer-events="none"></text></g></g><g  display="none" style="display: none;"></g><g  id="v-4905" display="none"><g  id="v-4890"><path  end="source" d="M 26 0 L 0 13 L 26 26 z"></path></g><g  id="v-4891"><path  end="target" d="M 26 0 L 0 13 L 26 26 z"></path></g></g><g  id="v-4904" display="none"><g  id="v-4889" transform="translate(1439, 1099) "><g  event="remove"><circle r="11"></circle><path transform="scale(.8) translate(-16, -16)" d="M24.778,21.419 19.276,15.917 24.777,10.415 21.949,7.585 16.447,13.087 10.945,7.585 8.117,10.415 13.618,15.917 8.116,21.419 10.946,24.248 16.447,18.746 21.948,24.248z"></path><title>Remove link.</title></g><g  event="link:options"><circle r="11" transform="translate(25)"></circle><path fill="white" transform="scale(.55) translate(29, -16)" d="M31.229,17.736c0.064-0.571,0.104-1.148,0.104-1.736s-0.04-1.166-0.104-1.737l-4.377-1.557c-0.218-0.716-0.504-1.401-0.851-2.05l1.993-4.192c-0.725-0.91-1.549-1.734-2.458-2.459l-4.193,1.994c-0.647-0.347-1.334-0.632-2.049-0.849l-1.558-4.378C17.165,0.708,16.588,0.667,16,0.667s-1.166,0.041-1.737,0.105L12.707,5.15c-0.716,0.217-1.401,0.502-2.05,0.849L6.464,4.005C5.554,4.73,4.73,5.554,4.005,6.464l1.994,4.192c-0.347,0.648-0.632,1.334-0.849,2.05l-4.378,1.557C0.708,14.834,0.667,15.412,0.667,16s0.041,1.165,0.105,1.736l4.378,1.558c0.217,0.715,0.502,1.401,0.849,2.049l-1.994,4.193c0.725,0.909,1.549,1.733,2.459,2.458l4.192-1.993c0.648,0.347,1.334,0.633,2.05,0.851l1.557,4.377c0.571,0.064,1.148,0.104,1.737,0.104c0.588,0,1.165-0.04,1.736-0.104l1.558-4.377c0.715-0.218,1.399-0.504,2.049-0.851l4.193,1.993c0.909-0.725,1.733-1.549,2.458-2.458l-1.993-4.193c0.347-0.647,0.633-1.334,0.851-2.049L31.229,17.736zM16,20.871c-2.69,0-4.872-2.182-4.872-4.871c0-2.69,2.182-4.872,4.872-4.872c2.689,0,4.871,2.182,4.871,4.872C20.871,18.689,18.689,20.871,16,20.871z"></path><title>Link options.</title></g></g></g></g><!--z-index:27--><g   id="j_335" ><path  stroke="#707070" d="M 597 1599 L 1001 1249" id="v-4921" stroke-width="2" stroke-dasharray="30 30" fill="none" style="opacity: 1;"></path><path  fill="black" stroke="black" d="M 0 0 0 0" transform="matrix(0.7556840278922284,-0.6549363709465048,0.6549363709465048,0.7556840278922284,597.0800170898438,1599)"></path><path  fill="#707070" stroke="#707070" d="M 20 0 L 0 10 L 20 20 z" id="v-4923" transform="matrix(-0.7556842023123078,0.6549361696956514,-0.6549361696956514,-0.7556842023123078,1007.469362899767,1256.5567967324166)" style="opacity: 1;"></path><path  d="M 597 1599 L 1001 1249" id="v-4922" fill="none" style="cursor: auto; pointer-events: visiblepainted;"></path><g ><g id="v-4912"  label-idx="0" cursor="move" transform="matrix(1,0,0,1,799,1424)" style="cursor: default; opacity: 1;"><rect joint-selector="rect" id="v-4916" fill="#ffffff" rx="3" ry="3" pointer-events="none" width="161.81239318847656" height="61.35813903808594" transform="matrix(1,0,0,1,-80.9,-30.6)"></rect><text joint-selector="text" id="v-4915" font-size="24px" xml:space="preserve" y="0.8em" fill="#707070" text-anchor="middle" pointer-events="none" font-family="Open Sans" font-weight="normal" transform="matrix(1,0,0,1,0,-24.8)"><tspan dy="0" >Send code run</tspan><tspan dy="1.2em" x="0" >events to</tspan></text></g><g id="v-4913"  label-idx="1" cursor="move" transform="matrix(1,0,0,1,799,1464.800048828125)" style="cursor: default; opacity: 1;"><rect joint-selector="rect" id="v-4918" fill="#ffffff" rx="3" ry="3" pointer-events="none" width="108.04449462890625" height="23.792485237121582" transform="matrix(1,0,0,1,-54,-11.9)"></rect><text joint-selector="text" id="v-4917" font-size="17px" xml:space="preserve" y="0.8em" fill="#707070" text-anchor="middle" pointer-events="none" font-family="Open Sans" font-weight="normal" transform="matrix(1,0,0,1,0,-6.7)"><tspan dy="0" >[JSON/HTTPS]</tspan></text></g><g id="v-4914"  label-idx="2" cursor="move" transform="matrix(1,0,0,1,789,1473.199951171875)" style="cursor: default; opacity: 1;"><rect joint-selector="rect" id="v-4920" fill="#ffffff" rx="3" ry="3"  width="0" height="0" transform="matrix(1,0,0,1,0,0)" display="none"></rect><text joint-selector="text" id="v-4919" fill="#000000" font-size="14" text-anchor="middle" pointer-events="none"></text></g></g><g  display="none" style="display: none;"></g><g  id="v-4925" display="none"><g  id="v-4910"><path  end="source" d="M 26 0 L 0 13 L 26 26 z"></path></g><g  id="v-4911"><path  end="target" d="M 26 0 L 0 13 L 26 26 z"></path></g></g><g  id="v-4924" display="none"><g  id="v-4909" transform="translate(627.2325009877666, 1572.808476867034) "><g  event="remove"><circle r="11"></circle><path transform="scale(.8) translate(-16, -16)" d="M24.778,21.419 19.276,15.917 24.777,10.415 21.949,7.585 16.447,13.087 10.945,7.585 8.117,10.415 13.618,15.917 8.116,21.419 10.946,24.248 16.447,18.746 21.948,24.248z"></path><title>Remove link.</title></g><g  event="link:options"><circle r="11" transform="translate(25)"></circle><path fill="white" transform="scale(.55) translate(29, -16)" d="M31.229,17.736c0.064-0.571,0.104-1.148,0.104-1.736s-0.04-1.166-0.104-1.737l-4.377-1.557c-0.218-0.716-0.504-1.401-0.851-2.05l1.993-4.192c-0.725-0.91-1.549-1.734-2.458-2.459l-4.193,1.994c-0.647-0.347-1.334-0.632-2.049-0.849l-1.558-4.378C17.165,0.708,16.588,0.667,16,0.667s-1.166,0.041-1.737,0.105L12.707,5.15c-0.716,0.217-1.401,0.502-2.05,0.849L6.464,4.005C5.554,4.73,4.73,5.554,4.005,6.464l1.994,4.192c-0.347,0.648-0.632,1.334-0.849,2.05l-4.378,1.557C0.708,14.834,0.667,15.412,0.667,16s0.041,1.165,0.105,1.736l4.378,1.558c0.217,0.715,0.502,1.401,0.849,2.049l-1.994,4.193c0.725,0.909,1.549,1.733,2.459,2.458l4.192-1.993c0.648,0.347,1.334,0.633,2.05,0.851l1.557,4.377c0.571,0.064,1.148,0.104,1.737,0.104c0.588,0,1.165-0.04,1.736-0.104l1.558-4.377c0.715-0.218,1.399-0.504,2.049-0.851l4.193,1.993c0.909-0.725,1.733-1.549,2.458-2.458l-1.993-4.193c0.347-0.647,0.633-1.334,0.851-2.049L31.229,17.736zM16,20.871c-2.69,0-4.872-2.182-4.872-4.871c0-2.69,2.182-4.872,4.872-4.872c2.689,0,4.871,2.182,4.871,4.872C20.871,18.689,18.689,20.871,16,20.871z"></path><title>Link options.</title></g></g></g></g><!--z-index:28--><g   id="j_336" ><path  stroke="#707070" d="M 1362 1249 L 1737 1549" id="v-4941" stroke-width="2" stroke-dasharray="30 30" fill="none" style="opacity: 1;"></path><path  fill="black" stroke="black" d="M 0 0 0 0" transform="matrix(0.7808688000832672,0.624695059254128,-0.624695059254128,0.7808688000832672,1361.5,1249)"></path><path  fill="#707070" stroke="#707070" d="M 20 0 L 0 10 L 20 20 z" id="v-4943" transform="matrix(-0.7808688416748548,-0.6246950072646416,0.6246950072646416,-0.7808688416748548,1730.2530225237895,1556.8086902472073)" style="opacity: 1;"></path><path  d="M 1362 1249 L 1737 1549" id="v-4942" fill="none" style="cursor: auto; pointer-events: visiblepainted;"></path><g ><g id="v-4932"  label-idx="0" cursor="move" transform="matrix(1,0,0,1,1549.5,1399)" style="cursor: default; opacity: 1;"><rect joint-selector="rect" id="v-4936" fill="#ffffff" rx="3" ry="3" pointer-events="none" width="160.1884002685547" height="61.35813903808594" transform="matrix(1,0,0,1,-80.1,-30.6)"></rect><text joint-selector="text" id="v-4935" font-size="24px" xml:space="preserve" y="0.8em" fill="#707070" text-anchor="middle" pointer-events="none" font-family="Open Sans" font-weight="normal" transform="matrix(1,0,0,1,0,-24.8)"><tspan dy="0" >Login/Register</tspan><tspan dy="1.2em" x="0" >account using</tspan></text></g><g id="v-4933"  label-idx="1" cursor="move" transform="matrix(1,0,0,1,1549.5,1439.800048828125)" style="cursor: default; opacity: 1;"><rect joint-selector="rect" id="v-4938" fill="#ffffff" rx="3" ry="3" pointer-events="none" width="61.90742492675781" height="23.792485237121582" transform="matrix(1,0,0,1,-31,-11.9)"></rect><text joint-selector="text" id="v-4937" font-size="17px" xml:space="preserve" y="0.8em" fill="#707070" text-anchor="middle" pointer-events="none" font-family="Open Sans" font-weight="normal" transform="matrix(1,0,0,1,0,-6.7)"><tspan dy="0" >[HTTPS]</tspan></text></g><g id="v-4934"  label-idx="2" cursor="move" transform="matrix(1,0,0,1,1539.5,1448.199951171875)" style="cursor: default; opacity: 1;"><rect joint-selector="rect" id="v-4940" fill="#ffffff" rx="3" ry="3"  width="0" height="0" transform="matrix(1,0,0,1,0,0)" display="none"></rect><text joint-selector="text" id="v-4939" fill="#000000" font-size="14" text-anchor="middle" pointer-events="none"></text></g></g><g  display="none" style="display: none;"></g><g  id="v-4945" display="none"><g  id="v-4930"><path  end="source" d="M 26 0 L 0 13 L 26 26 z"></path></g><g  id="v-4931"><path  end="target" d="M 26 0 L 0 13 L 26 26 z"></path></g></g><g  id="v-4944" display="none"><g  id="v-4929" transform="translate(1393.2347523777212, 1273.9878019021771) "><g  event="remove"><circle r="11"></circle><path transform="scale(.8) translate(-16, -16)" d="M24.778,21.419 19.276,15.917 24.777,10.415 21.949,7.585 16.447,13.087 10.945,7.585 8.117,10.415 13.618,15.917 8.116,21.419 10.946,24.248 16.447,18.746 21.948,24.248z"></path><title>Remove link.</title></g><g  event="link:options"><circle r="11" transform="translate(25)"></circle><path fill="white" transform="scale(.55) translate(29, -16)" d="M31.229,17.736c0.064-0.571,0.104-1.148,0.104-1.736s-0.04-1.166-0.104-1.737l-4.377-1.557c-0.218-0.716-0.504-1.401-0.851-2.05l1.993-4.192c-0.725-0.91-1.549-1.734-2.458-2.459l-4.193,1.994c-0.647-0.347-1.334-0.632-2.049-0.849l-1.558-4.378C17.165,0.708,16.588,0.667,16,0.667s-1.166,0.041-1.737,0.105L12.707,5.15c-0.716,0.217-1.401,0.502-2.05,0.849L6.464,4.005C5.554,4.73,4.73,5.554,4.005,6.464l1.994,4.192c-0.347,0.648-0.632,1.334-0.849,2.05l-4.378,1.557C0.708,14.834,0.667,15.412,0.667,16s0.041,1.165,0.105,1.736l4.378,1.558c0.217,0.715,0.502,1.401,0.849,2.049l-1.994,4.193c0.725,0.909,1.549,1.733,2.459,2.458l4.192-1.993c0.648,0.347,1.334,0.633,2.05,0.851l1.557,4.377c0.571,0.064,1.148,0.104,1.737,0.104c0.588,0,1.165-0.04,1.736-0.104l1.558-4.377c0.715-0.218,1.399-0.504,2.049-0.851l4.193,1.993c0.909-0.725,1.733-1.549,2.458-2.458l-1.993-4.193c0.347-0.647,0.633-1.334,0.851-2.049L31.229,17.736zM16,20.871c-2.69,0-4.872-2.182-4.872-4.871c0-2.69,2.182-4.872,4.872-4.872c2.689,0,4.871,2.182,4.871,4.872C20.871,18.689,18.689,20.871,16,20.871z"></path><title>Link options.</title></g></g></g></g><!--z-index:29--><g   id="j_337" ><path  stroke="#707070" d="M 1362 949 L 1737 649" id="v-4961" stroke-width="2" stroke-dasharray="30 30" fill="none" style="opacity: 1;"></path><path  fill="black" stroke="black" d="M 0 0 0 0" transform="matrix(0.7808686753084834,-0.6246952152225711,0.6246952152225711,0.7808686753084834,1361.5,949)"></path><path  fill="#707070" stroke="#707070" d="M 20 0 L 0 10 L 20 20 z" id="v-4963" transform="matrix(-0.7808688416748546,0.6246950072646418,-0.6246950072646418,-0.7808688416748546,1742.7469226690823,656.8086865862897)" style="opacity: 1;"></path><path  d="M 1362 949 L 1737 649" id="v-4962" fill="none" style="cursor: auto; pointer-events: visiblepainted;"></path><g ><g id="v-4952"  label-idx="0" cursor="move" transform="matrix(1,0,0,1,1549.5,799)" style="cursor: default; opacity: 1;"><rect joint-selector="rect" id="v-4956" fill="#ffffff" rx="3" ry="3" pointer-events="none" width="190.84861755371094" height="61.35813903808594" transform="matrix(1,0,0,1,-95.4,-30.6)"></rect><text joint-selector="text" id="v-4955" font-size="24px" xml:space="preserve" y="0.8em" fill="#707070" text-anchor="middle" pointer-events="none" font-family="Open Sans" font-weight="normal" transform="matrix(1,0,0,1,0,-24.8)"><tspan dy="0" >Reads and writes</tspan><tspan dy="1.2em" x="0" >to</tspan></text></g><g id="v-4953"  label-idx="1" cursor="move" transform="matrix(1,0,0,1,1549.5,839.7999877929688)" style="cursor: default; opacity: 1;"><rect joint-selector="rect" id="v-4958" fill="#ffffff" rx="3" ry="3" pointer-events="none" width="95.28734588623047" height="23.792485237121582" transform="matrix(1,0,0,1,-47.6,-11.9)"></rect><text joint-selector="text" id="v-4957" font-size="17px" xml:space="preserve" y="0.8em" fill="#707070" text-anchor="middle" pointer-events="none" font-family="Open Sans" font-weight="normal" transform="matrix(1,0,0,1,0,-6.7)"><tspan dy="0" >[FileSystem]</tspan></text></g><g id="v-4954"  label-idx="2" cursor="move" transform="matrix(1,0,0,1,1539.5,848.2000122070312)" style="cursor: default; opacity: 1;"><rect joint-selector="rect" id="v-4960" fill="#ffffff" rx="3" ry="3"  width="0" height="0" transform="matrix(1,0,0,1,0,0)" display="none"></rect><text joint-selector="text" id="v-4959" fill="#000000" font-size="14" text-anchor="middle" pointer-events="none"></text></g></g><g  display="none" style="display: none;"></g><g  id="v-4965" display="none"><g  id="v-4950"><path  end="source" d="M 26 0 L 0 13 L 26 26 z"></path></g><g  id="v-4951"><path  end="target" d="M 26 0 L 0 13 L 26 26 z"></path></g></g><g  id="v-4964" display="none"><g  id="v-4949" transform="translate(1393.2347523777212, 924.0121980978231) "><g  event="remove"><circle r="11"></circle><path transform="scale(.8) translate(-16, -16)" d="M24.778,21.419 19.276,15.917 24.777,10.415 21.949,7.585 16.447,13.087 10.945,7.585 8.117,10.415 13.618,15.917 8.116,21.419 10.946,24.248 16.447,18.746 21.948,24.248z"></path><title>Remove link.</title></g><g  event="link:options"><circle r="11" transform="translate(25)"></circle><path fill="white" transform="scale(.55) translate(29, -16)" d="M31.229,17.736c0.064-0.571,0.104-1.148,0.104-1.736s-0.04-1.166-0.104-1.737l-4.377-1.557c-0.218-0.716-0.504-1.401-0.851-2.05l1.993-4.192c-0.725-0.91-1.549-1.734-2.458-2.459l-4.193,1.994c-0.647-0.347-1.334-0.632-2.049-0.849l-1.558-4.378C17.165,0.708,16.588,0.667,16,0.667s-1.166,0.041-1.737,0.105L12.707,5.15c-0.716,0.217-1.401,0.502-2.05,0.849L6.464,4.005C5.554,4.73,4.73,5.554,4.005,6.464l1.994,4.192c-0.347,0.648-0.632,1.334-0.849,2.05l-4.378,1.557C0.708,14.834,0.667,15.412,0.667,16s0.041,1.165,0.105,1.736l4.378,1.558c0.217,0.715,0.502,1.401,0.849,2.049l-1.994,4.193c0.725,0.909,1.549,1.733,2.459,2.458l4.192-1.993c0.648,0.347,1.334,0.633,2.05,0.851l1.557,4.377c0.571,0.064,1.148,0.104,1.737,0.104c0.588,0,1.165-0.04,1.736-0.104l1.558-4.377c0.715-0.218,1.399-0.504,2.049-0.851l4.193,1.993c0.909-0.725,1.733-1.549,2.458-2.458l-1.993-4.193c0.347-0.647,0.633-1.334,0.851-2.049L31.229,17.736zM16,20.871c-2.69,0-4.872-2.182-4.872-4.871c0-2.69,2.182-4.872,4.872-4.872c2.689,0,4.871,2.182,4.871,4.872C20.871,18.689,18.689,20.871,16,20.871z"></path><title>Link options.</title></g></g></g></g><!--z-index:30--><!--z-index:31--><!--z-index:32--><!--z-index:33--><!--z-index:34--><!--z-index:35--><!--z-index:36--><!--z-index:37--><!--z-index:38--><!--z-index:39--><!--z-index:40--><!--z-index:41--><!--z-index:42--><!--z-index:43--><!--z-index:44--><!--z-index:45--><!--z-index:46--><!--z-index:47--><!--z-index:48--><!--z-index:49--><!--z-index:50--><!--z-index:51--><!--z-index:52--><!--z-index:53--><!--z-index:54--><!--z-index:55--><!--z-index:56--><!--z-index:57--><!--z-index:58--><!--z-index:59--><!--z-index:60--><!--z-index:61--><!--z-index:62--><!--z-index:63--><!--z-index:64--><!--z-index:65--><!--z-index:66--><!--z-index:67--><!--z-index:68--><!--z-index:69--></g><g ></g><g ></g><g ></g></g></svg>